<svg width="100" height="100" viewBox="0 0 100 100" fill="none" xmlns="http://www.w3.org/2000/svg">
<path d="M87.5 58.3333V62.5C87.5 70.4583 83.0417 77.375 76.4583 80.875L79.1667 91.6667H70.8333L68.75 83.3333H31.25L29.1666 91.6667H20.8333L23.5416 80.875C20.2058 79.1039 17.4154 76.4576 15.4701 73.2203C13.5247 69.9829 12.498 66.2769 12.5 62.5V58.3333H8.33331V50H83.3333V20.8333C83.3333 19.7283 82.8943 18.6685 82.1129 17.8871C81.3315 17.1057 80.2717 16.6667 79.1667 16.6667C77.0833 16.6667 75.5 18.0833 75 19.9583C77.625 22.2083 79.1667 25.5417 79.1667 29.1667H54.1666C54.1666 25.8515 55.4836 22.672 57.8278 20.3278C60.172 17.9836 63.3514 16.6667 66.6667 16.6667H67.375C69.0833 11.8333 73.7083 8.33333 79.1667 8.33333C82.4819 8.33333 85.6613 9.65029 88.0055 11.9945C90.3497 14.3387 91.6667 17.5181 91.6667 20.8333V58.3333H87.5ZM79.1667 58.3333H20.8333V62.5C20.8333 65.8152 22.1503 68.9946 24.4945 71.3388C26.8387 73.683 30.0181 75 33.3333 75H66.6667C69.9819 75 73.1613 73.683 75.5055 71.3388C77.8497 68.9946 79.1667 65.8152 79.1667 62.5V58.3333Z" fill="black"/>
</svg>
