<svg width="75" height="75" viewBox="0 0 75 75" fill="none" xmlns="http://www.w3.org/2000/svg">
<path d="M12.5 18.75H25M21.875 26.5625H51.5625M62.5 10.9375H51.5625V23.4375C51.5625 32.2125 52.5688 36.9656 55.3875 42.5344C56.8531 45.4313 59.2531 48.4375 62.5 48.4375M23.4375 26.5625C23.1313 34.2188 22.1562 37.8656 19.6625 42.5625C18.1406 45.4312 15.7469 48.4375 12.5 48.4375M17.1875 64.0625C13.0435 64.0625 9.06921 62.4163 6.13896 59.486C3.2087 56.5558 1.5625 52.5815 1.5625 48.4375C1.5625 44.2935 3.2087 40.3192 6.13896 37.389C9.06921 34.4587 13.0435 32.8125 17.1875 32.8125C21.3315 32.8125 25.3058 34.4587 28.236 37.389C31.1663 40.3192 32.8125 44.2935 32.8125 48.4375C32.8125 52.5815 31.1663 56.5558 28.236 59.486C25.3058 62.4163 21.3315 64.0625 17.1875 64.0625ZM57.8125 64.0625C53.6685 64.0625 49.6942 62.4163 46.764 59.486C43.8337 56.5558 42.1875 52.5815 42.1875 48.4375C42.1875 44.2935 43.8337 40.3192 46.764 37.389C49.6942 34.4587 53.6685 32.8125 57.8125 32.8125C61.9565 32.8125 65.9308 34.4587 68.861 37.389C71.7913 40.3192 73.4375 44.2935 73.4375 48.4375C73.4375 52.5815 71.7913 56.5558 68.861 59.486C65.9308 62.4163 61.9565 64.0625 57.8125 64.0625Z" stroke="white" stroke-width="3"/>
</svg>
