<svg width="75" height="75" viewBox="0 0 75 75" fill="none" xmlns="http://www.w3.org/2000/svg">
<path fill-rule="evenodd" clip-rule="evenodd" d="M37.325 3.90625H37.675C43.4188 3.90625 47.9688 3.90625 51.5281 4.38437C55.1906 4.87813 58.1562 5.91563 60.4969 8.25313C62.8344 10.5938 63.8719 13.5594 64.3656 17.2219C64.6875 19.6094 64.7906 22.4406 64.825 25.7812H65.625C68.6438 25.7812 71.0938 28.2313 71.0938 31.25V34.375C71.0938 36.0938 70.2812 37.7188 68.9062 38.75L64.8344 41.8031C64.8125 45.6531 64.7219 48.8656 64.3656 51.5281C63.8719 55.1906 62.8344 58.1562 60.4969 60.4969C59.9031 61.0885 59.2687 61.6021 58.5938 62.0375V65.625C58.5938 67.0754 58.0176 68.4664 56.992 69.492C55.9664 70.5176 54.5754 71.0938 53.125 71.0938H48.4375C46.9871 71.0938 45.5961 70.5176 44.5705 69.492C43.5449 68.4664 42.9688 67.0754 42.9688 65.625V64.825C41.3312 64.8396 39.5667 64.8458 37.675 64.8438H37.325C35.4313 64.8479 33.6667 64.8417 32.0312 64.825V65.625C32.0312 67.0754 31.4551 68.4664 30.4295 69.492C29.4039 70.5176 28.0129 71.0938 26.5625 71.0938H21.875C20.4246 71.0938 19.0336 70.5176 18.008 69.492C16.9824 68.4664 16.4062 67.0754 16.4062 65.625V62.0375C15.7191 61.5928 15.0812 61.0763 14.5031 60.4969C12.1656 58.1562 11.1281 55.1906 10.6344 51.5281C10.2781 48.8656 10.1875 45.6531 10.1656 41.8031L6.09375 38.75C4.71875 37.7188 3.90625 36.0938 3.90625 34.375V31.25C3.90625 28.2313 6.35625 25.7812 9.375 25.7812H10.1719C10.2094 22.4406 10.3125 19.6094 10.6344 17.2219C11.1281 13.5594 12.1656 10.5938 14.5031 8.25313C16.8437 5.91563 19.8094 4.87813 23.4719 4.38437C27.0344 3.90625 31.5813 3.90625 37.325 3.90625ZM10.1562 30.4688H9.375C9.1678 30.4688 8.96909 30.5511 8.82257 30.6976C8.67606 30.8441 8.59375 31.0428 8.59375 31.25V34.375C8.59375 34.4963 8.62199 34.6159 8.67623 34.7244C8.73047 34.8329 8.80922 34.9272 8.90625 35L10.1562 35.9375V30.4688ZM14.8625 42.9688C14.8938 46.2 14.9937 48.775 15.2812 50.9063C15.7031 54.0469 16.4969 55.8594 17.8188 57.1813C19.1406 58.5031 20.9531 59.2969 24.0969 59.7188C27.3094 60.15 31.5406 60.1562 37.5 60.1562C43.4594 60.1562 47.6938 60.15 50.9063 59.7188C54.0469 59.2969 55.8594 58.5031 57.1813 57.1813C58.5031 55.8594 59.2969 54.0469 59.7188 50.9031C60.0063 48.7781 60.1031 46.2 60.1375 42.9688H14.8625ZM60.1562 38.2812H14.8438V31.25C14.8438 25.3656 14.85 21.1656 15.2656 17.9688H59.7344C60.15 21.1656 60.1562 25.3656 60.1562 31.25V38.2812ZM64.8438 35.9375L66.0938 35C66.1908 34.9272 66.2695 34.8329 66.3238 34.7244C66.378 34.6159 66.4062 34.4963 66.4062 34.375V31.25C66.4062 31.0428 66.3239 30.8441 66.1774 30.6976C66.0309 30.5511 65.8322 30.4688 65.625 30.4688H64.8438V35.9375ZM58.4406 13.2812C58.108 12.6512 57.6836 12.074 57.1813 11.5687C55.8594 10.2469 54.0469 9.45313 50.9031 9.03125C47.6906 8.6 43.4594 8.59375 37.5 8.59375C31.5406 8.59375 27.3094 8.6 24.0938 9.03125C20.9531 9.45313 19.1406 10.2469 17.8188 11.5687C17.3164 12.074 16.892 12.6512 16.5594 13.2812H58.4406ZM21.0938 63.9375V65.625C21.0938 66.0563 21.4438 66.4062 21.875 66.4062H26.5625C26.7697 66.4062 26.9684 66.3239 27.1149 66.1774C27.2614 66.0309 27.3438 65.8322 27.3438 65.625V64.7C26.0491 64.6421 24.7573 64.5306 23.4719 64.3656C22.6727 64.2613 21.8791 64.1185 21.0938 63.9375ZM47.6562 64.7V65.625C47.6562 66.0563 48.0062 66.4062 48.4375 66.4062H53.125C53.3322 66.4062 53.5309 66.3239 53.6774 66.1774C53.8239 66.0309 53.9062 65.8322 53.9062 65.625V63.9375C53.15 64.1125 52.3573 64.2552 51.5281 64.3656C50.2427 64.5306 48.9509 64.6421 47.6562 64.7ZM19.5312 50C19.5312 49.3784 19.7782 48.7823 20.2177 48.3427C20.6573 47.9032 21.2534 47.6562 21.875 47.6562H26.5625C27.1841 47.6562 27.7802 47.9032 28.2198 48.3427C28.6593 48.7823 28.9062 49.3784 28.9062 50C28.9062 50.6216 28.6593 51.2177 28.2198 51.6573C27.7802 52.0968 27.1841 52.3438 26.5625 52.3438H21.875C21.2534 52.3438 20.6573 52.0968 20.2177 51.6573C19.7782 51.2177 19.5312 50.6216 19.5312 50ZM46.0938 50C46.0938 49.3784 46.3407 48.7823 46.7802 48.3427C47.2198 47.9032 47.8159 47.6562 48.4375 47.6562H53.125C53.7466 47.6562 54.3427 47.9032 54.7823 48.3427C55.2218 48.7823 55.4688 49.3784 55.4688 50C55.4688 50.6216 55.2218 51.2177 54.7823 51.6573C54.3427 52.0968 53.7466 52.3438 53.125 52.3438H48.4375C47.8159 52.3438 47.2198 52.0968 46.7802 51.6573C46.3407 51.2177 46.0938 50.6216 46.0938 50Z" fill="white"/>
</svg>
