<svg width="75" height="75" viewBox="0 0 75 75" fill="none" xmlns="http://www.w3.org/2000/svg">
<path fill-rule="evenodd" clip-rule="evenodd" d="M18.75 43.7499C22.2017 43.7499 25 46.5482 25 50C25 53.4517 22.2017 56.25 18.75 56.25C15.2982 56.25 12.5 53.4517 12.5 50C12.5 46.5482 15.2982 43.7499 18.75 43.7499ZM54.6876 43.7499C58.1393 43.7499 60.9375 46.5482 60.9375 50C60.9375 53.4517 58.1393 56.25 54.6876 56.25C51.2358 56.25 48.4375 53.4517 48.4375 50C48.4375 46.5482 51.2358 43.7499 54.6876 43.7499ZM45.3126 50C45.3126 51.0957 45.5005 52.1476 45.846 53.1251H27.5915C27.9457 52.1213 28.1261 51.0644 28.125 50C28.125 48.9043 27.937 47.8523 27.5915 46.8749H45.846C45.4918 47.8786 45.3114 48.9355 45.3126 50ZM41.6666 21.875L42.5 22.5L54.4907 31.4937L64.0158 33.8764C66.6345 34.5312 68.5174 36.7841 68.73 39.4378L68.7501 39.9398V50.8774L66.3829 51.4692L63.8244 52.1089C63.9831 51.4172 64.063 50.7097 64.0626 50C64.0626 48.0832 63.4873 46.3009 62.5001 44.8162L62.5 39.9398L52.3671 37.4067L51.7548 37.2536L51.6325 37.1618L50.0001 38.7943C48.8279 39.9664 47.2382 40.6249 45.5806 40.625L12.4999 40.6248V43.0124C10.582 44.7289 9.37495 47.2235 9.37495 50C9.37495 50.4752 9.4104 50.942 9.47852 51.3981L6.25 48.1693V33.2436L6.97437 32.3744L14.7868 22.9994L15.7239 21.875H41.6666ZM39.5844 28.125H18.65L13.4425 34.3749H45.5806L46.5818 33.3735L39.5844 28.125Z" fill="white"/>
</svg>
