<svg width="100" height="100" viewBox="0 0 100 100" fill="none" xmlns="http://www.w3.org/2000/svg">
<path fill-rule="evenodd" clip-rule="evenodd" d="M65.5208 91.6666V59.3958H76.3542L77.975 46.8208H65.5167V38.7916C65.5167 35.1499 66.5292 32.6666 71.7542 32.6666H78.4125V21.4166C75.1882 21.0701 71.9471 20.9032 68.7042 20.9166C59.1042 20.9166 52.5333 26.7791 52.5333 37.5416V46.8208H41.6667V59.3958H52.5292V91.6666H12.9333C10.3917 91.6666 8.33334 89.6083 8.33334 87.0666V12.9333C8.33334 10.3916 10.3917 8.33325 12.9333 8.33325H87.0667C89.6083 8.33325 91.6667 10.3916 91.6667 12.9333V87.0666C91.6667 89.6083 89.6083 91.6666 87.0667 91.6666H65.5208Z" fill="#357DBD"/>
</svg>
