<svg width="150" height="150" viewBox="0 0 150 150" fill="none" xmlns="http://www.w3.org/2000/svg">
<path d="M112.5 18.75V50M37.5 18.75V50M128.125 25V34.375M128.125 34.375V43.75M128.125 34.375H137.5M21.875 25V34.375M21.875 34.375V43.75M21.875 34.375H12.5M112.5 34.375H37.5M56.25 50V100M93.75 50V100M100 118.75V131.25M50 118.75V131.25M45.4812 118.75H104.525C112.256 118.75 116.125 118.75 117.725 116.856C121.35 112.569 114.4 106.894 111.863 104.037C109.006 100.812 106.913 100 102.688 100H47.3125C43.0875 100 41 100.812 38.1375 104.037C35.6 106.894 28.65 112.569 32.275 116.856C33.875 118.75 37.75 118.75 45.4812 118.75Z" stroke="white" stroke-width="3" stroke-linecap="round" stroke-linejoin="round"/>
</svg>
