<svg width="100" height="100" viewBox="0 0 100 100" fill="none" xmlns="http://www.w3.org/2000/svg">
<path d="M16.6665 79.1667V41.6667C16.6665 40.3473 16.9623 39.0973 17.554 37.9167C18.1457 36.7362 18.9609 35.7639 19.9998 35L44.9998 16.25C46.4582 15.1389 48.1248 14.5834 49.9998 14.5834C51.8748 14.5834 53.5415 15.1389 54.9998 16.25L79.9998 35C81.0415 35.7639 81.8582 36.7362 82.4498 37.9167C83.0415 39.0973 83.3359 40.3473 83.3332 41.6667V79.1667C83.3332 81.4584 82.5165 83.4209 80.8832 85.0542C79.2498 86.6875 77.2887 87.5028 74.9998 87.5H62.4998C61.3193 87.5 60.3304 87.1 59.5332 86.3C58.7359 85.5 58.3359 84.5111 58.3332 83.3334V62.5C58.3332 61.3195 57.9332 60.3306 57.1332 59.5334C56.3332 58.7362 55.3443 58.3362 54.1665 58.3334H45.8332C44.6526 58.3334 43.6637 58.7334 42.8665 59.5334C42.0693 60.3334 41.6693 61.3223 41.6665 62.5V83.3334C41.6665 84.5139 41.2665 85.5042 40.4665 86.3042C39.6665 87.1042 38.6776 87.5028 37.4998 87.5H24.9998C22.7082 87.5 20.7471 86.6848 19.1165 85.0542C17.4859 83.4236 16.6693 81.4611 16.6665 79.1667Z" fill="#FF9346"/>
</svg>
