<svg width="100" height="100" viewBox="0 0 100 100" fill="none" xmlns="http://www.w3.org/2000/svg">
<path d="M32.5 8.33325H67.5C80.8333 8.33325 91.6667 19.1666 91.6667 32.4999V67.4999C91.6667 73.9093 89.1205 80.0562 84.5884 84.5883C80.0563 89.1205 73.9094 91.6666 67.5 91.6666H32.5C19.1666 91.6666 8.33331 80.8333 8.33331 67.4999V32.4999C8.33331 26.0905 10.8794 19.9436 15.4116 15.4115C19.9437 10.8794 26.0906 8.33325 32.5 8.33325ZM31.6666 16.6666C27.6884 16.6666 23.8731 18.2469 21.06 21.06C18.247 23.873 16.6666 27.6883 16.6666 31.6666V68.3333C16.6666 76.6249 23.375 83.3333 31.6666 83.3333H68.3333C72.3116 83.3333 76.1269 81.7529 78.9399 78.9399C81.753 76.1268 83.3333 72.3115 83.3333 68.3333V31.6666C83.3333 23.3749 76.625 16.6666 68.3333 16.6666H31.6666ZM71.875 22.9166C73.2563 22.9166 74.5811 23.4653 75.5578 24.4421C76.5346 25.4188 77.0833 26.7436 77.0833 28.1249C77.0833 29.5063 76.5346 30.831 75.5578 31.8078C74.5811 32.7845 73.2563 33.3333 71.875 33.3333C70.4936 33.3333 69.1689 32.7845 68.1921 31.8078C67.2154 30.831 66.6667 29.5063 66.6667 28.1249C66.6667 26.7436 67.2154 25.4188 68.1921 24.4421C69.1689 23.4653 70.4936 22.9166 71.875 22.9166ZM50 29.1666C55.5253 29.1666 60.8244 31.3615 64.7314 35.2685C68.6384 39.1755 70.8333 44.4746 70.8333 49.9999C70.8333 55.5253 68.6384 60.8243 64.7314 64.7313C60.8244 68.6383 55.5253 70.8333 50 70.8333C44.4746 70.8333 39.1756 68.6383 35.2686 64.7313C31.3616 60.8243 29.1666 55.5253 29.1666 49.9999C29.1666 44.4746 31.3616 39.1755 35.2686 35.2685C39.1756 31.3615 44.4746 29.1666 50 29.1666ZM50 37.4999C46.6848 37.4999 43.5054 38.8169 41.1611 41.1611C38.8169 43.5053 37.5 46.6847 37.5 49.9999C37.5 53.3151 38.8169 56.4946 41.1611 58.8388C43.5054 61.183 46.6848 62.4999 50 62.4999C53.3152 62.4999 56.4946 61.183 58.8388 58.8388C61.183 56.4946 62.5 53.3151 62.5 49.9999C62.5 46.6847 61.183 43.5053 58.8388 41.1611C56.4946 38.8169 53.3152 37.4999 50 37.4999Z" fill="#357DBD"/>
</svg>
