<svg width="100" height="100" viewBox="0 0 100 100" fill="none" xmlns="http://www.w3.org/2000/svg">
<path d="M33.3333 33.3333V20.8333H41.6667V33.3333H33.3333ZM33.3333 70.8333V50H41.6667V70.8333H33.3333ZM25 91.6667C22.7083 91.6667 20.7472 90.8514 19.1167 89.2208C17.4861 87.5903 16.6694 85.6278 16.6667 83.3333V16.6667C16.6667 14.375 17.4833 12.4139 19.1167 10.7833C20.75 9.15278 22.7111 8.33611 25 8.33334H75C77.2917 8.33334 79.2542 9.15 80.8875 10.7833C82.5208 12.4167 83.3361 14.3778 83.3333 16.6667V83.3333C83.3333 85.625 82.518 87.5875 80.8875 89.2208C79.2569 90.8542 77.2944 91.6695 75 91.6667H25ZM25 83.3333H75V45.8333H25V83.3333ZM25 37.5H75V16.6667H25V37.5Z" fill="black"/>
</svg>
