<svg width="100" height="100" viewBox="0 0 100 100" fill="none" xmlns="http://www.w3.org/2000/svg">
<path d="M93.75 81.25H90.625V28.125C90.625 27.2962 90.2958 26.5013 89.7097 25.9153C89.1237 25.3292 88.3288 25 87.5 25H71.875V15.625C71.875 14.7962 71.5458 14.0013 70.9597 13.4153C70.3737 12.8292 69.5788 12.5 68.75 12.5H31.25C30.4212 12.5 29.6263 12.8292 29.0403 13.4153C28.4542 14.0013 28.125 14.7962 28.125 15.625V37.5H12.5C11.6712 37.5 10.8763 37.8292 10.2903 38.4153C9.70424 39.0013 9.375 39.7962 9.375 40.625V81.25H6.25C5.4212 81.25 4.62634 81.5792 4.04029 82.1653C3.45424 82.7513 3.125 83.5462 3.125 84.375C3.125 85.2038 3.45424 85.9987 4.04029 86.5847C4.62634 87.1708 5.4212 87.5 6.25 87.5H93.75C94.5788 87.5 95.3737 87.1708 95.9597 86.5847C96.5458 85.9987 96.875 85.2038 96.875 84.375C96.875 83.5462 96.5458 82.7513 95.9597 82.1653C95.3737 81.5792 94.5788 81.25 93.75 81.25ZM15.625 43.75H31.25C32.0788 43.75 32.8737 43.4208 33.4597 42.8347C34.0458 42.2487 34.375 41.4538 34.375 40.625V18.75H65.625V28.125C65.625 28.9538 65.9542 29.7487 66.5403 30.3347C67.1263 30.9208 67.9212 31.25 68.75 31.25H84.375V81.25H59.375V65.625C59.375 64.7962 59.0458 64.0013 58.4597 63.4153C57.8737 62.8292 57.0788 62.5 56.25 62.5H43.75C42.9212 62.5 42.1263 62.8292 41.5403 63.4153C40.9542 64.0013 40.625 64.7962 40.625 65.625V81.25H15.625V43.75ZM53.125 81.25H46.875V68.75H53.125V81.25ZM43.75 28.125C43.75 27.2962 44.0792 26.5013 44.6653 25.9153C45.2513 25.3292 46.0462 25 46.875 25H53.125C53.9538 25 54.7487 25.3292 55.3347 25.9153C55.9208 26.5013 56.25 27.2962 56.25 28.125C56.25 28.9538 55.9208 29.7487 55.3347 30.3347C54.7487 30.9208 53.9538 31.25 53.125 31.25H46.875C46.0462 31.25 45.2513 30.9208 44.6653 30.3347C44.0792 29.7487 43.75 28.9538 43.75 28.125ZM43.75 40.625C43.75 39.7962 44.0792 39.0013 44.6653 38.4153C45.2513 37.8292 46.0462 37.5 46.875 37.5H53.125C53.9538 37.5 54.7487 37.8292 55.3347 38.4153C55.9208 39.0013 56.25 39.7962 56.25 40.625C56.25 41.4538 55.9208 42.2487 55.3347 42.8347C54.7487 43.4208 53.9538 43.75 53.125 43.75H46.875C46.0462 43.75 45.2513 43.4208 44.6653 42.8347C44.0792 42.2487 43.75 41.4538 43.75 40.625ZM65.625 40.625C65.625 39.7962 65.9542 39.0013 66.5403 38.4153C67.1263 37.8292 67.9212 37.5 68.75 37.5H75C75.8288 37.5 76.6237 37.8292 77.2097 38.4153C77.7958 39.0013 78.125 39.7962 78.125 40.625C78.125 41.4538 77.7958 42.2487 77.2097 42.8347C76.6237 43.4208 75.8288 43.75 75 43.75H68.75C67.9212 43.75 67.1263 43.4208 66.5403 42.8347C65.9542 42.2487 65.625 41.4538 65.625 40.625ZM34.375 53.125C34.375 53.9538 34.0458 54.7487 33.4597 55.3347C32.8737 55.9208 32.0788 56.25 31.25 56.25H25C24.1712 56.25 23.3763 55.9208 22.7903 55.3347C22.2042 54.7487 21.875 53.9538 21.875 53.125C21.875 52.2962 22.2042 51.5013 22.7903 50.9153C23.3763 50.3292 24.1712 50 25 50H31.25C32.0788 50 32.8737 50.3292 33.4597 50.9153C34.0458 51.5013 34.375 52.2962 34.375 53.125ZM34.375 65.625C34.375 66.4538 34.0458 67.2487 33.4597 67.8347C32.8737 68.4208 32.0788 68.75 31.25 68.75H25C24.1712 68.75 23.3763 68.4208 22.7903 67.8347C22.2042 67.2487 21.875 66.4538 21.875 65.625C21.875 64.7962 22.2042 64.0013 22.7903 63.4153C23.3763 62.8292 24.1712 62.5 25 62.5H31.25C32.0788 62.5 32.8737 62.8292 33.4597 63.4153C34.0458 64.0013 34.375 64.7962 34.375 65.625ZM43.75 53.125C43.75 52.2962 44.0792 51.5013 44.6653 50.9153C45.2513 50.3292 46.0462 50 46.875 50H53.125C53.9538 50 54.7487 50.3292 55.3347 50.9153C55.9208 51.5013 56.25 52.2962 56.25 53.125C56.25 53.9538 55.9208 54.7487 55.3347 55.3347C54.7487 55.9208 53.9538 56.25 53.125 56.25H46.875C46.0462 56.25 45.2513 55.9208 44.6653 55.3347C44.0792 54.7487 43.75 53.9538 43.75 53.125ZM65.625 53.125C65.625 52.2962 65.9542 51.5013 66.5403 50.9153C67.1263 50.3292 67.9212 50 68.75 50H75C75.8288 50 76.6237 50.3292 77.2097 50.9153C77.7958 51.5013 78.125 52.2962 78.125 53.125C78.125 53.9538 77.7958 54.7487 77.2097 55.3347C76.6237 55.9208 75.8288 56.25 75 56.25H68.75C67.9212 56.25 67.1263 55.9208 66.5403 55.3347C65.9542 54.7487 65.625 53.9538 65.625 53.125ZM65.625 65.625C65.625 64.7962 65.9542 64.0013 66.5403 63.4153C67.1263 62.8292 67.9212 62.5 68.75 62.5H75C75.8288 62.5 76.6237 62.8292 77.2097 63.4153C77.7958 64.0013 78.125 64.7962 78.125 65.625C78.125 66.4538 77.7958 67.2487 77.2097 67.8347C76.6237 68.4208 75.8288 68.75 75 68.75H68.75C67.9212 68.75 67.1263 68.4208 66.5403 67.8347C65.9542 67.2487 65.625 66.4538 65.625 65.625Z" fill="black"/>
</svg>
