<svg width="100" height="100" viewBox="0 0 100 100" fill="none" xmlns="http://www.w3.org/2000/svg">
<path d="M80.7408 7.83325C83.1965 7.83325 85.5516 8.80878 87.288 10.5452C89.0245 12.2817 90 14.6368 90 17.0925V81.9073C90 84.363 89.0245 86.7182 87.288 88.4546C85.5516 90.1911 83.1965 91.1666 80.7408 91.1666H15.9259C13.4702 91.1666 11.1151 90.1911 9.37866 88.4546C7.64221 86.7182 6.66669 84.363 6.66669 81.9073V17.0925C6.66669 14.6368 7.64221 12.2817 9.37866 10.5452C11.1151 8.80878 13.4702 7.83325 15.9259 7.83325H80.7408ZM78.4259 79.5925V55.0555C78.4259 51.0527 76.8358 47.2138 74.0054 44.3834C71.175 41.553 67.3362 39.9629 63.3334 39.9629C59.3982 39.9629 54.8148 42.3703 52.5926 45.9814V40.8425H39.6759V79.5925H52.5926V56.7684C52.5926 53.2036 55.463 50.287 59.0278 50.287C60.7468 50.287 62.3954 50.9698 63.6109 52.1853C64.8264 53.4009 65.5093 55.0494 65.5093 56.7684V79.5925H78.4259ZM24.6297 33.574C26.6924 33.574 28.6708 32.7546 30.1294 31.2959C31.588 29.8373 32.4074 27.859 32.4074 25.7962C32.4074 21.4907 28.9352 17.9721 24.6297 17.9721C22.5546 17.9721 20.5645 18.7965 19.0972 20.2638C17.6299 21.7311 16.8056 23.7211 16.8056 25.7962C16.8056 30.1018 20.3241 33.574 24.6297 33.574ZM31.0648 79.5925V40.8425H18.2408V79.5925H31.0648Z" fill="#357DBD"/>
</svg>
