<svg width="40" height="40" viewBox="0 0 40 40" fill="none" xmlns="http://www.w3.org/2000/svg">
<path d="M6.66675 9.99996C6.66675 9.1159 7.01794 8.26806 7.64306 7.64294C8.26818 7.01782 9.11603 6.66663 10.0001 6.66663H30.0001C30.8841 6.66663 31.732 7.01782 32.3571 7.64294C32.9822 8.26806 33.3334 9.1159 33.3334 9.99996V13.3333C33.3334 14.2173 32.9822 15.0652 32.3571 15.6903C31.732 16.3154 30.8841 16.6666 30.0001 16.6666H10.0001C9.11603 16.6666 8.26818 16.3154 7.64306 15.6903C7.01794 15.0652 6.66675 14.2173 6.66675 13.3333V9.99996ZM6.66675 26.6666C6.66675 25.7826 7.01794 24.9347 7.64306 24.3096C8.26818 23.6845 9.11603 23.3333 10.0001 23.3333H30.0001C30.8841 23.3333 31.732 23.6845 32.3571 24.3096C32.9822 24.9347 33.3334 25.7826 33.3334 26.6666V30C33.3334 30.884 32.9822 31.7319 32.3571 32.357C31.732 32.9821 30.8841 33.3333 30.0001 33.3333H10.0001C9.11603 33.3333 8.26818 32.9821 7.64306 32.357C7.01794 31.7319 6.66675 30.884 6.66675 30V26.6666Z" stroke="#FF9346" stroke-width="2" stroke-linecap="round" stroke-linejoin="round"/>
</svg>
