<svg width="100" height="286" viewBox="0 0 100 286" fill="none" xmlns="http://www.w3.org/2000/svg">
<path d="M50 0C57.5776 0 64.8449 3.0132 70.203 8.37674C75.5612 13.7403 78.5714 21.0148 78.5714 28.6C78.5714 36.1852 75.5612 43.4597 70.203 48.8233C64.8449 54.1868 57.5776 57.2 50 57.2C42.4224 57.2 35.1551 54.1868 29.797 48.8233C24.4388 43.4597 21.4286 36.1852 21.4286 28.6C21.4286 21.0148 24.4388 13.7403 29.797 8.37674C35.1551 3.0132 42.4224 0 50 0ZM28.5714 71.5H71.4286C79.0062 71.5 86.2734 74.5132 91.6316 79.8767C96.9898 85.2403 100 92.5148 100 100.1V178.75H78.5714V286H21.4286V178.75H0V100.1C0 92.5148 3.0102 85.2403 8.36838 79.8767C13.7266 74.5132 20.9938 71.5 28.5714 71.5Z" fill="#F85755"/>
</svg>
