<svg width="150" height="150" viewBox="0 0 150 150" fill="none" xmlns="http://www.w3.org/2000/svg">
<path d="M25 112.5C23.2292 112.5 21.7459 111.9 20.55 110.7C19.3542 109.5 18.7542 108.017 18.75 106.25C18.7459 104.483 19.3459 103 20.55 101.8C21.7542 100.6 23.2375 100 25 100H125C126.771 100 128.256 100.6 129.456 101.8C130.656 103 131.254 104.483 131.25 106.25C131.246 108.017 130.646 109.502 129.45 110.706C128.254 111.91 126.771 112.508 125 112.5H25ZM25 81.25C23.2292 81.25 21.7459 80.65 20.55 79.45C19.3542 78.25 18.7542 76.7667 18.75 75C18.7459 73.2333 19.3459 71.75 20.55 70.55C21.7542 69.35 23.2375 68.75 25 68.75H125C126.771 68.75 128.256 69.35 129.456 70.55C130.656 71.75 131.254 73.2333 131.25 75C131.246 76.7667 130.646 78.2521 129.45 79.4563C128.254 80.6604 126.771 81.2583 125 81.25H25ZM25 50C23.2292 50 21.7459 49.4 20.55 48.2C19.3542 47 18.7542 45.5167 18.75 43.75C18.7459 41.9833 19.3459 40.5 20.55 39.3C21.7542 38.1 23.2375 37.5 25 37.5H125C126.771 37.5 128.256 38.1 129.456 39.3C130.656 40.5 131.254 41.9833 131.25 43.75C131.246 45.5167 130.646 47.0021 129.45 48.2062C128.254 49.4104 126.771 50.0083 125 50H25Z" fill="#FF9346"/>
</svg>
