<svg width="71" height="75" viewBox="0 0 71 75" fill="none" xmlns="http://www.w3.org/2000/svg">
<path d="M35.5001 32.8125C32.3617 32.8125 29.3518 31.5779 27.1327 29.3802C24.9135 27.1825 23.6667 24.2018 23.6667 21.0938C23.6667 17.9857 24.9135 15.005 27.1327 12.8073C29.3518 10.6097 32.3617 9.375 35.5001 9.375C38.6385 9.375 41.6483 10.6097 43.8675 12.8073C46.0867 15.005 47.3334 17.9857 47.3334 21.0938C47.3334 24.2018 46.0867 27.1825 43.8675 29.3802C41.6483 31.5779 38.6385 32.8125 35.5001 32.8125ZM35.5001 14.0625C31.5714 14.0625 28.4001 17.2031 28.4001 21.0938C28.4001 24.9844 31.5714 28.125 35.5001 28.125C39.4287 28.125 42.6001 24.9844 42.6001 21.0938C42.6001 17.2031 39.4287 14.0625 35.5001 14.0625Z" fill="white"/>
<path d="M63.9 51.5625C62.5747 51.5625 61.5333 50.5312 61.5333 49.2188C61.5333 47.9062 62.5747 46.875 63.9 46.875C65.2253 46.875 66.2667 45.8438 66.2667 44.5312C66.2667 41.4232 65.0199 38.4425 62.8008 36.2448C60.5816 34.0471 57.5717 32.8125 54.4333 32.8125H49.7C48.3747 32.8125 47.3333 31.7812 47.3333 30.4688C47.3333 29.1562 48.3747 28.125 49.7 28.125C53.6287 28.125 56.8 24.9844 56.8 21.0938C56.8 17.2031 53.6287 14.0625 49.7 14.0625C48.3747 14.0625 47.3333 13.0312 47.3333 11.7188C47.3333 10.4062 48.3747 9.375 49.7 9.375C52.8384 9.375 55.8482 10.6097 58.0674 12.8073C60.2866 15.005 61.5333 17.9857 61.5333 21.0938C61.5333 24 60.492 26.625 58.6933 28.6875C65.746 30.5625 71 36.9375 71 44.5312C71 48.4219 67.8287 51.5625 63.9 51.5625ZM7.1 51.5625C3.17133 51.5625 0 48.4219 0 44.5312C0 36.9375 5.20667 30.5625 12.3067 28.6875C10.5553 26.625 9.46667 24 9.46667 21.0938C9.46667 17.9857 10.7134 15.005 12.9326 12.8073C15.1517 10.6097 18.1616 9.375 21.3 9.375C22.6253 9.375 23.6667 10.4062 23.6667 11.7188C23.6667 13.0312 22.6253 14.0625 21.3 14.0625C17.3713 14.0625 14.2 17.2031 14.2 21.0938C14.2 24.9844 17.3713 28.125 21.3 28.125C22.6253 28.125 23.6667 29.1562 23.6667 30.4688C23.6667 31.7812 22.6253 32.8125 21.3 32.8125H16.5667C13.4283 32.8125 10.4184 34.0471 8.19924 36.2448C5.98006 38.4425 4.73333 41.4232 4.73333 44.5312C4.73333 45.8438 5.77467 46.875 7.1 46.875C8.42533 46.875 9.46667 47.9062 9.46667 49.2188C9.46667 50.5312 8.42533 51.5625 7.1 51.5625ZM49.7 65.625H21.3C17.3713 65.625 14.2 62.4844 14.2 58.5938V53.9062C14.2 44.8594 21.6313 37.5 30.7667 37.5H40.2333C49.3687 37.5 56.8 44.8594 56.8 53.9062V58.5938C56.8 62.4844 53.6287 65.625 49.7 65.625ZM30.7667 42.1875C27.6283 42.1875 24.6184 43.4221 22.3992 45.6198C20.1801 47.8175 18.9333 50.7982 18.9333 53.9062V58.5938C18.9333 59.9062 19.9747 60.9375 21.3 60.9375H49.7C51.0253 60.9375 52.0667 59.9062 52.0667 58.5938V53.9062C52.0667 50.7982 50.8199 47.8175 48.6008 45.6198C46.3816 43.4221 43.3717 42.1875 40.2333 42.1875H30.7667Z" fill="white"/>
</svg>
