<svg width="100" height="100" viewBox="0 0 100 100" fill="none" xmlns="http://www.w3.org/2000/svg">
<path d="M50 52.0833C46.1322 52.0833 42.4229 53.6198 39.688 56.3547C36.9531 59.0896 35.4167 62.7989 35.4167 66.6667C35.4167 70.5344 36.9531 74.2437 39.688 76.9787C42.4229 79.7136 46.1322 81.25 50 81.25C53.8677 81.25 57.5771 79.7136 60.312 76.9787C63.0469 74.2437 64.5833 70.5344 64.5833 66.6667C64.5833 62.7989 63.0469 59.0896 60.312 56.3547C57.5771 53.6198 53.8677 52.0833 50 52.0833ZM43.75 66.6667C43.75 65.0091 44.4085 63.4194 45.5806 62.2473C46.7527 61.0752 48.3424 60.4167 50 60.4167C51.6576 60.4167 53.2473 61.0752 54.4194 62.2473C55.5915 63.4194 56.25 65.0091 56.25 66.6667C56.25 68.3243 55.5915 69.914 54.4194 71.0861C53.2473 72.2582 51.6576 72.9167 50 72.9167C48.3424 72.9167 46.7527 72.2582 45.5806 71.0861C44.4085 69.914 43.75 68.3243 43.75 66.6667Z" fill="black"/>
<path d="M73.025 21.3167L59.7792 2.74582L11.075 41.6542L8.375 41.625V41.6667H6.25V91.6667H93.75V41.6667H89.7417L81.7667 18.3375L73.025 21.3167ZM80.9375 41.6667H39.1542L70.275 31.0583L76.6167 29.0292L80.9375 41.6667ZM64.7917 24.125L32.6667 35.075L58.1083 14.75L64.7917 24.125ZM14.5833 75.7042V57.6208C16.3424 57 17.9402 55.9933 19.2596 54.6747C20.579 53.356 21.5865 51.7587 22.2083 50H77.7917C78.4129 51.7595 79.4202 53.3576 80.7397 54.677C82.0591 55.9964 83.6572 57.0037 85.4167 57.625V75.7083C83.6572 76.3296 82.0591 77.3369 80.7397 78.6563C79.4202 79.9757 78.4129 81.5738 77.7917 83.3333H22.2167C21.5924 81.5737 20.5832 79.9756 19.2626 78.6557C17.942 77.3358 16.3433 76.3274 14.5833 75.7042Z" fill="black"/>
</svg>
