<svg width="100" height="100" viewBox="0 0 100 100" fill="none" xmlns="http://www.w3.org/2000/svg">
<path d="M96.4284 75V89.2857C96.4284 91.1801 95.6759 92.9969 94.3363 94.3365C92.9968 95.676 91.18 96.4286 89.2856 96.4286H74.9999M74.9999 3.57141H89.2856C91.18 3.57141 92.9968 4.32396 94.3363 5.66351C95.6759 7.00305 96.4284 8.81986 96.4284 10.7143V25M3.57129 25V10.7143C3.57129 8.81986 4.32384 7.00305 5.66338 5.66351C7.00293 4.32396 8.81974 3.57141 10.7141 3.57141H24.9999M24.9999 96.4286H10.7141C8.81974 96.4286 7.00293 95.676 5.66338 94.3365C4.32384 92.9969 3.57129 91.1801 3.57129 89.2857V75M49.9999 46.4286C53.7887 46.4286 57.4223 44.9235 60.1014 42.2444C62.7805 39.5653 64.2856 35.9316 64.2856 32.1428C64.2856 28.354 62.7805 24.7204 60.1014 22.0413C57.4223 19.3622 53.7887 17.8571 49.9999 17.8571C46.2111 17.8571 42.5774 19.3622 39.8983 22.0413C37.2192 24.7204 35.7141 28.354 35.7141 32.1428C35.7141 35.9316 37.2192 39.5653 39.8983 42.2444C42.5774 44.9235 46.2111 46.4286 49.9999 46.4286ZM77.1641 78.5714C75.3179 72.8179 71.6926 67.7992 66.8106 64.2387C61.9287 60.6781 56.0423 58.7595 49.9999 58.7595C43.9574 58.7595 38.071 60.6781 33.1891 64.2387C28.3071 67.7992 24.6818 72.8179 22.8356 78.5714H77.1641Z" stroke="black" stroke-linecap="round" stroke-linejoin="round"/>
</svg>
