<svg width="100" height="100" viewBox="0 0 100 100" fill="none" xmlns="http://www.w3.org/2000/svg">
<path d="M25 91.6667C22.7083 91.6667 20.7472 90.8514 19.1166 89.2209C17.4861 87.5903 16.6694 85.6278 16.6666 83.3334V33.3334C16.6666 31.0417 17.4833 29.0806 19.1166 27.45C20.75 25.8195 22.7111 25.0028 25 25H33.3333C33.3333 20.4167 34.9652 16.4931 38.2291 13.2292C41.493 9.96532 45.4166 8.33337 50 8.33337C54.5833 8.33337 58.5069 9.96532 61.7708 13.2292C65.0347 16.4931 66.6666 20.4167 66.6666 25H75C77.2916 25 79.2541 25.8167 80.8875 27.45C82.5208 29.0834 83.3361 31.0445 83.3333 33.3334V83.3334C83.3333 85.625 82.518 87.5875 80.8875 89.2209C79.2569 90.8542 77.2944 91.6695 75 91.6667H25ZM25 83.3334H75V33.3334H66.6666V41.6667C66.6666 42.8473 66.2666 43.8375 65.4666 44.6375C64.6666 45.4375 63.6777 45.8362 62.5 45.8334C61.3222 45.8306 60.3333 45.4306 59.5333 44.6334C58.7333 43.8362 58.3333 42.8473 58.3333 41.6667V33.3334H41.6666V41.6667C41.6666 42.8473 41.2666 43.8375 40.4666 44.6375C39.6666 45.4375 38.6777 45.8362 37.5 45.8334C36.3222 45.8306 35.3333 45.4306 34.5333 44.6334C33.7333 43.8362 33.3333 42.8473 33.3333 41.6667V33.3334H25V83.3334ZM41.6666 25H58.3333C58.3333 22.7084 57.518 20.7473 55.8875 19.1167C54.2569 17.4862 52.2944 16.6695 50 16.6667C47.7055 16.6639 45.7444 17.4806 44.1166 19.1167C42.4888 20.7528 41.6722 22.7139 41.6666 25Z" fill="white"/>
</svg>
