<svg width="100" height="100" viewBox="0 0 100 100" fill="none" xmlns="http://www.w3.org/2000/svg">
<path d="M87.5 37.5V29.1666C87.5 22.2916 81.875 16.6666 75 16.6666H58.3333C55.125 16.6666 52.2083 17.9166 50 19.9166C47.7917 17.9166 44.875 16.6666 41.6667 16.6666H25C18.125 16.6666 12.5 22.2916 12.5 29.1666V37.5C5.625 37.5 0 43.125 0 50V70.8333C0 77.7083 5.625 83.3333 12.5 83.3333V91.6666H20.8333V83.3333H79.1667V91.6666H87.5V83.3333C94.375 83.3333 100 77.7083 100 70.8333V50C100 43.125 94.375 37.5 87.5 37.5ZM58.3333 25H75C77.2917 25 79.1667 26.875 79.1667 29.1666V40.75C76.625 43.0416 75 46.3333 75 50V58.3333H54.1667V29.1666C54.1667 26.875 56.0417 25 58.3333 25ZM20.8333 29.1666C20.8333 26.875 22.7083 25 25 25H41.6667C43.9583 25 45.8333 26.875 45.8333 29.1666V58.3333H25V50C25 46.3333 23.375 43.0416 20.8333 40.75V29.1666ZM91.6667 70.8333C91.6667 73.125 89.7917 75 87.5 75H12.5C10.2083 75 8.33333 73.125 8.33333 70.8333V50C8.33333 47.7083 10.2083 45.8333 12.5 45.8333C14.7917 45.8333 16.6667 47.7083 16.6667 50V66.6666H83.3333V50C83.3333 47.7083 85.2083 45.8333 87.5 45.8333C89.7917 45.8333 91.6667 47.7083 91.6667 50V70.8333Z" fill="black"/>
</svg>
