<svg width="75" height="75" viewBox="0 0 75 75" fill="none" xmlns="http://www.w3.org/2000/svg">
<path d="M65.625 28.125V21.875C65.625 16.7188 61.4062 12.5 56.25 12.5H43.75C41.3438 12.5 39.1562 13.4375 37.5 14.9375C35.8438 13.4375 33.6562 12.5 31.25 12.5H18.75C13.5938 12.5 9.375 16.7188 9.375 21.875V28.125C4.21875 28.125 0 32.3438 0 37.5V53.125C0 58.2812 4.21875 62.5 9.375 62.5V68.75H15.625V62.5H59.375V68.75H65.625V62.5C70.7812 62.5 75 58.2812 75 53.125V37.5C75 32.3438 70.7812 28.125 65.625 28.125ZM43.75 18.75H56.25C57.9688 18.75 59.375 20.1562 59.375 21.875V30.5625C57.4688 32.2812 56.25 34.75 56.25 37.5V43.75H40.625V21.875C40.625 20.1562 42.0312 18.75 43.75 18.75ZM15.625 21.875C15.625 20.1562 17.0312 18.75 18.75 18.75H31.25C32.9688 18.75 34.375 20.1562 34.375 21.875V43.75H18.75V37.5C18.75 34.75 17.5312 32.2812 15.625 30.5625V21.875ZM68.75 53.125C68.75 54.8438 67.3438 56.25 65.625 56.25H9.375C7.65625 56.25 6.25 54.8438 6.25 53.125V37.5C6.25 35.7812 7.65625 34.375 9.375 34.375C11.0938 34.375 12.5 35.7812 12.5 37.5V50H62.5V37.5C62.5 35.7812 63.9062 34.375 65.625 34.375C67.3438 34.375 68.75 35.7812 68.75 37.5V53.125Z" fill="white"/>
</svg>
