<svg width="75" height="75" viewBox="0 0 75 75" fill="none" xmlns="http://www.w3.org/2000/svg">
<path d="M40.6249 34.375L56.2499 18.75M59.3749 21.875L53.1249 15.625L60.9374 10.9375L64.0624 14.0625L59.3749 21.875ZM12.578 28.0468C11.0777 26.5478 10.0455 24.645 9.60723 22.5699C9.16891 20.4948 9.34335 18.3371 10.1093 16.3593L14.553 20.8031H20.803V14.5531L16.3593 10.1093C18.3372 9.34166 20.4956 9.16579 22.5716 9.60315C24.6477 10.0405 26.5517 11.0722 28.0518 12.5726C29.5518 14.073 30.5831 15.9772 31.02 18.0534C31.4569 20.1295 31.2805 22.2879 30.5124 24.2656L50.7312 44.4875C52.7089 43.7194 54.8672 43.543 56.9434 43.9799C59.0195 44.4168 60.9238 45.4481 62.4242 46.9481C63.9245 48.4482 64.9563 50.3522 65.3936 52.4283C65.831 54.5043 65.6551 56.6627 64.8874 58.6406L60.4468 54.1968H54.1968V60.4468L58.6405 64.8906C56.6632 65.6583 54.5053 65.8344 52.4296 65.3976C50.3539 64.9607 48.45 63.9298 46.9498 62.4302C45.4496 60.9307 44.4178 59.0273 43.9801 56.9518C43.5423 54.8763 43.7175 52.7183 44.4843 50.7406L24.2593 30.5156C22.2824 31.2802 20.1259 31.454 18.0521 31.0157C15.9783 30.5774 14.0765 29.546 12.578 28.0468Z" stroke="white" stroke-width="3" stroke-linecap="round" stroke-linejoin="round"/>
<path d="M38.1344 45.3125L20.6219 62.825C20.23 63.2176 19.7646 63.529 19.2522 63.7416C18.7399 63.9541 18.1906 64.0635 17.6359 64.0635C17.0812 64.0635 16.532 63.9541 16.0196 63.7416C15.5073 63.529 15.0419 63.2176 14.65 62.825L12.175 60.35C11.7824 59.9581 11.4709 59.4927 11.2584 58.9803C11.0459 58.468 10.9365 57.9187 10.9365 57.364C10.9365 56.8094 11.0459 56.2601 11.2584 55.7477C11.4709 55.2354 11.7824 54.77 12.175 54.3781L29.6875 36.8656" stroke="white" stroke-width="3" stroke-linecap="round" stroke-linejoin="round"/>
</svg>
