<svg width="75" height="75" viewBox="0 0 75 75" fill="none" xmlns="http://www.w3.org/2000/svg">
<path d="M34.0625 46.5625L28.9844 69.375C28.8281 70.1042 28.45 70.7031 27.85 71.1719C27.25 71.6406 26.5604 71.875 25.7812 71.875C24.7396 71.875 23.9062 71.4844 23.2812 70.7031C22.6562 69.9219 22.4479 69.0365 22.6562 68.0469L30.625 27.8125L25 30V37.5C25 38.3854 24.7 39.1281 24.1 39.7281C23.5 40.3281 22.7583 40.6271 21.875 40.625C20.9917 40.6229 20.25 40.3229 19.65 39.725C19.05 39.1271 18.75 38.3854 18.75 37.5V27.9687C18.75 27.3437 18.9198 26.7844 19.2594 26.2906C19.599 25.7969 20.0542 25.4187 20.625 25.1562L34.5313 19.2187C35.2604 18.9062 36.0292 18.7239 36.8375 18.6719C37.6458 18.6198 38.4135 18.7239 39.1406 18.9844C39.8677 19.2448 40.5583 19.6094 41.2125 20.0781C41.8667 20.5469 42.4 21.1458 42.8125 21.875L45.9375 26.875C46.6146 27.9167 47.4094 28.9062 48.3219 29.8437C49.2344 30.7812 50.2625 31.5885 51.4063 32.2656C52.1354 32.6823 52.9427 33.0604 53.8281 33.4C54.7135 33.7396 55.599 33.9865 56.4844 34.1406C57.3177 34.2969 58.0083 34.675 58.5563 35.275C59.1042 35.875 59.3771 36.6167 59.375 37.5C59.3729 38.3833 59.0604 39.1125 58.4375 39.6875C57.8146 40.2625 57.0594 40.4969 56.1719 40.3906C53.2552 39.9739 50.6375 39.0625 48.3188 37.6562C46 36.25 43.9823 34.5573 42.2656 32.5781L40.3125 42.1875L45.9375 47.5C46.25 47.8125 46.4844 48.1646 46.6406 48.5562C46.7969 48.9479 46.875 49.351 46.875 49.7656V68.75C46.875 69.6354 46.575 70.3781 45.975 70.9781C45.375 71.5781 44.6333 71.8771 43.75 71.875C42.8667 71.8729 42.125 71.5729 41.525 70.975C40.925 70.3771 40.625 69.6354 40.625 68.75V51.5625L34.0625 46.5625ZM42.1875 17.1875C40.4688 17.1875 38.9979 16.576 37.775 15.3531C36.5521 14.1302 35.9396 12.6583 35.9375 10.9375C35.9354 9.21666 36.5479 7.74582 37.775 6.52499C39.0021 5.30416 40.4729 4.69166 42.1875 4.68749C43.9021 4.68332 45.374 5.29582 46.6031 6.52499C47.8323 7.75416 48.4438 9.22499 48.4375 10.9375C48.4312 12.65 47.8198 14.1219 46.6031 15.3531C45.3865 16.5844 43.9146 17.1958 42.1875 17.1875Z" fill="white"/>
</svg>
