<svg width="75" height="75" viewBox="0 0 75 75" fill="none" xmlns="http://www.w3.org/2000/svg">
<path d="M9.375 18.75H18.75M53.125 18.75H53.1563" stroke="white" stroke-width="3" stroke-linecap="round" stroke-linejoin="round"/>
<path d="M59.375 6.25H15.625C12.1732 6.25 9.375 9.04822 9.375 12.5V62.5C9.375 65.9518 12.1732 68.75 15.625 68.75H59.375C62.8268 68.75 65.625 65.9518 65.625 62.5V12.5C65.625 9.04822 62.8268 6.25 59.375 6.25Z" stroke="white" stroke-width="3" stroke-linecap="round" stroke-linejoin="round"/>
<path d="M37.5 56.25C46.1294 56.25 53.125 49.2544 53.125 40.625C53.125 31.9956 46.1294 25 37.5 25C28.8706 25 21.875 31.9956 21.875 40.625C21.875 49.2544 28.8706 56.25 37.5 56.25Z" stroke="white" stroke-width="3" stroke-linecap="round" stroke-linejoin="round"/>
<path d="M37.5 56.25C39.572 56.25 41.5591 55.4269 43.0243 53.9618C44.4894 52.4966 45.3125 50.5095 45.3125 48.4375C45.3125 46.3655 44.4894 44.3784 43.0243 42.9132C41.5591 41.4481 39.572 40.625 37.5 40.625C35.428 40.625 33.4409 39.8019 31.9757 38.3368C30.5106 36.8716 29.6875 34.8845 29.6875 32.8125C29.6875 30.7405 30.5106 28.7534 31.9757 27.2882C33.4409 25.8231 35.428 25 37.5 25" stroke="white" stroke-width="3" stroke-linecap="round" stroke-linejoin="round"/>
</svg>
