<svg width="75" height="75" viewBox="0 0 75 75" fill="none" xmlns="http://www.w3.org/2000/svg">
<path d="M37.5 63.8219C36.1541 63.8219 35.0166 63.3573 34.0875 62.4281C33.1583 61.499 32.6937 60.3615 32.6937 59.0156C32.6937 57.6698 33.1583 56.5313 34.0875 55.6C35.0166 54.6688 36.1541 54.2042 37.5 54.2063C38.8458 54.2083 39.9833 54.6729 40.9125 55.6C41.8416 56.5271 42.3062 57.6646 42.3062 59.0125C42.3062 60.3604 41.8416 61.499 40.9125 62.4281C39.9833 63.3573 38.8458 63.8219 37.5 63.8219ZM37.5 36.0594C41.1666 36.0594 44.6177 36.6844 47.8531 37.9344C51.0885 39.1844 53.9979 40.9229 56.5812 43.15C57.1021 43.5708 57.375 44.099 57.4 44.7344C57.4271 45.3677 57.2125 45.9136 56.7562 46.3719C56.3104 46.8156 55.7677 47.0302 55.1281 47.0156C54.4885 47.0011 53.9073 46.7896 53.3843 46.3813C51.2448 44.5875 48.8166 43.1792 46.1 42.1563C43.3833 41.1354 40.5166 40.625 37.5 40.625C34.4833 40.625 31.6166 41.1354 28.9 42.1563C26.1833 43.1771 23.7562 44.5854 21.6187 46.3813C21.0979 46.7896 20.5156 46.9979 19.8718 47.0063C19.2323 47.0146 18.6906 46.7958 18.2468 46.35C17.801 45.8938 17.5875 45.349 17.6062 44.7156C17.625 44.0823 17.8958 43.5542 18.4187 43.1313C21.0021 40.9021 23.9125 39.1667 27.15 37.925C30.3833 36.6813 33.8333 36.0594 37.5 36.0594ZM37.5 17.3094C43.85 17.3094 49.7625 18.4063 55.2375 20.6C60.7125 22.7958 65.5812 25.8479 69.8437 29.7563C70.3646 30.1979 70.6416 30.75 70.675 31.4125C70.7062 32.0729 70.4937 32.6323 70.0375 33.0906C69.5521 33.574 68.9791 33.7781 68.3187 33.7031C67.6562 33.6302 67.0448 33.3573 66.4843 32.8844C62.6135 29.4115 58.2073 26.7083 53.2656 24.775C48.3239 22.8417 43.0687 21.875 37.5 21.875C31.9312 21.875 26.676 22.8417 21.7343 24.775C16.7927 26.7083 12.3864 29.4115 8.5156 32.8844C7.9531 33.3573 7.34268 33.6313 6.68435 33.7063C6.02185 33.7792 5.44893 33.574 4.9656 33.0906C4.50726 32.6323 4.29476 32.0729 4.3281 31.4125C4.35935 30.7521 4.63539 30.2 5.15622 29.7563C9.41872 25.8479 14.2875 22.7958 19.7625 20.6C25.2375 18.4083 31.15 17.3094 37.5 17.3094Z" fill="white"/>
</svg>
