<svg width="87" height="100" viewBox="0 0 87 100" fill="none" xmlns="http://www.w3.org/2000/svg">
<path d="M11.9505 6.66675C5.35907 6.66675 0 12.0053 0 18.5715V78.0953C0 84.6615 5.35907 90.0001 11.9505 90.0001H71.7033C78.2948 90.0001 83.6538 84.6615 83.6538 78.0953V18.5715C83.6538 12.0053 78.2948 6.66675 71.7033 6.66675H11.9505ZM67.4272 22.2917L48.0449 44.3528L70.8443 74.3751H52.9932L39.026 56.1645L23.0235 74.3751H14.1539L34.8807 50.7702L13.0149 22.2917H31.3142L43.9556 38.9398L58.5577 22.2917H67.4272ZM60.3689 69.0923L28.644 27.2955H23.3596L55.4393 69.0923H60.3503H60.3689Z" fill="#357DBD"/>
</svg>
